<svg version="1.1" id="Layer_1" xmlns="http://www.w3.org/2000/svg" xmlns:xlink="http://www.w3.org/1999/xlink" x="0px" y="0px"
	 width="100%" viewBox="0 0 3024 973" enable-background="new 0 0 3024 973" xml:space="preserve">
<path fill="#000000" opacity="1.000000" stroke="none" 
	d="
M2833.000000,974.000000 
	C1890.166626,974.000000 947.833313,973.997437 5.500010,974.092651 
	C1.751031,974.093018 0.905697,973.249084 0.906872,969.500000 
	C1.007641,648.166687 1.007641,326.833344 0.906872,5.500030 
	C0.905697,1.750893 1.751033,0.907057 5.500008,0.907411 
	C1010.500000,1.002447 2015.500000,1.002447 3020.500000,0.907412 
	C3024.249023,0.907057 3025.094482,1.750890 3025.093262,5.500029 
	C3024.992432,326.833344 3024.992432,648.166687 3025.093018,969.500000 
	C3025.094238,973.249084 3024.250488,974.104187 3020.499756,974.096130 
	C2958.166748,973.961182 2895.833252,974.000000 2833.000000,974.000000 
z"/>
<path fill="#FDFDFD" opacity="1.000000" stroke="none" 
	d="
M1162.027954,539.000000 
	C1162.028076,556.332764 1161.963623,573.166077 1162.090088,589.997864 
	C1162.111938,592.898743 1161.615723,594.080505 1158.336670,593.977295 
	C1150.011841,593.715393 1141.669312,593.735901 1133.342407,593.961182 
	C1130.235352,594.045166 1129.352539,593.157410 1129.415039,590.076172 
	C1129.607422,580.580200 1129.501587,571.078186 1129.501343,561.578491 
	C1129.500000,500.747131 1129.543701,439.915680 1129.389404,379.084717 
	C1129.378540,374.829834 1130.573608,373.948242 1134.643555,373.959503 
	C1187.308105,374.105347 1239.973267,374.129852 1292.637451,373.939514 
	C1297.198486,373.923035 1297.997925,375.196381 1297.989624,379.443298 
	C1297.852295,449.107422 1297.834229,518.772095 1298.018555,588.435974 
	C1298.031250,593.260010 1296.515869,594.149597 1292.192627,593.984375 
	C1283.871704,593.666260 1275.523193,593.695557 1267.200195,593.986023 
	C1263.738770,594.106873 1261.878784,592.900146 1260.095825,590.042053 
	C1228.502441,539.399292 1196.806030,488.820923 1165.128906,438.230438 
	C1164.373169,437.023621 1163.584839,435.837280 1162.027954,433.428650 
	C1162.027954,469.376526 1162.027954,503.938263 1162.027954,539.000000 
z"/>
<path fill="#FDFDFD" opacity="1.000000" stroke="none" 
	d="
M410.550842,467.413727 
	C393.568268,440.948029 400.430328,406.972870 426.406952,387.771912 
	C437.997650,379.204468 451.024475,373.970367 465.264709,372.018188 
	C469.540619,371.432037 471.043610,369.952362 470.801422,365.499695 
	C470.385681,357.855896 470.825195,350.169434 470.631500,342.507782 
	C470.559174,339.646179 471.410370,338.814758 474.238068,338.931702 
	C479.562317,339.151917 484.908051,339.145172 490.233063,338.934540 
	C493.088257,338.821594 493.912323,339.742737 493.848145,342.573578 
	C493.666840,350.569489 494.036621,358.583527 493.676239,366.567291 
	C493.495697,370.566315 495.018463,371.503754 498.625336,371.996674 
	C515.778564,374.340973 531.286621,380.716766 544.747314,391.763885 
	C552.478516,398.108826 558.326782,405.839264 562.282898,415.067322 
	C563.280945,417.395355 562.867798,418.223358 560.599731,419.009735 
	C551.978333,421.998688 543.383240,425.069977 534.843140,428.282562 
	C532.963501,428.989624 532.496582,428.556427 531.592224,426.872742 
	C524.008911,412.754364 510.578613,407.868073 496.089905,404.705688 
	C493.015930,404.034729 493.816132,406.270294 493.809753,407.696655 
	C493.759827,418.863068 493.781647,430.029755 493.782227,441.196381 
	C493.782623,449.196381 493.963013,457.202118 493.704559,465.193726 
	C493.588379,468.786255 494.573456,470.236542 498.284058,471.135803 
	C512.561584,474.595917 526.154602,479.802856 538.423706,488.163788 
	C572.978882,511.711884 568.340210,556.412415 540.886292,578.310791 
	C528.049622,588.549927 513.450745,594.433533 497.371094,596.735840 
	C494.219208,597.187134 493.672272,598.291992 493.725311,601.057922 
	C493.875488,608.888428 493.611755,616.728943 493.861542,624.554382 
	C493.969543,627.937744 493.230530,629.316284 489.556427,629.062744 
	C484.745880,628.730835 479.882172,628.760132 475.066528,629.050903 
	C471.675171,629.255676 470.481567,628.385742 470.609283,624.774536 
	C470.891907,616.784790 470.588867,608.775879 470.738647,600.778870 
	C470.789276,598.074768 470.002045,597.180847 467.208069,596.787048 
	C447.658569,594.031616 429.987976,587.025146 415.483521,573.147400 
	C409.752869,567.664368 405.381409,561.252136 402.143311,554.035950 
	C401.268463,552.086365 400.611450,550.708435 403.660736,549.671692 
	C411.982025,546.842468 420.202515,543.686523 428.335571,540.349548 
	C431.342224,539.115967 431.893768,540.827148 433.058289,542.760132 
	C441.034607,555.999939 454.127472,560.860229 468.240814,563.967102 
	C470.325989,564.426208 470.727386,563.241455 470.723480,561.415833 
	C470.680420,541.416077 470.647797,521.415955 470.740906,501.416473 
	C470.753418,498.723480 469.442017,498.219574 467.228180,497.695374 
	C455.418274,494.899017 443.764740,491.568909 432.902527,485.993927 
	C424.195496,481.525116 416.660095,475.597534 410.550842,467.413727 
z"/>
<path fill="#FDFDFD" opacity="1.000000" stroke="none" 
	d="
M1872.085938,586.075195 
	C1862.196289,591.505615 1851.977051,594.899353 1841.199951,596.392212 
	C1837.732178,596.872620 1836.514404,597.897461 1836.676758,601.582153 
	C1837.021484,609.398254 1836.656738,617.243164 1836.845093,625.069946 
	C1836.915039,627.977722 1836.394287,629.264465 1833.095337,629.083008 
	C1827.779663,628.790649 1822.426025,628.814453 1817.107666,629.082825 
	C1814.050903,629.237183 1813.582642,628.007629 1813.640747,625.364563 
	C1813.794434,618.369812 1813.691772,611.369324 1813.689453,604.371155 
	C1813.687012,597.199707 1813.673218,597.277588 1806.556030,596.092590 
	C1787.363770,592.897095 1770.316895,585.335083 1756.567871,571.199951 
	C1751.645874,566.139771 1747.950806,560.263733 1745.028687,553.845642 
	C1743.966309,551.512451 1744.153320,550.553223 1746.851440,549.619202 
	C1755.158081,546.743774 1763.347900,543.523499 1771.531982,540.307251 
	C1773.693970,539.457581 1774.601318,540.004333 1775.718384,542.014160 
	C1783.369751,555.778809 1796.671265,560.633911 1810.897461,563.932617 
	C1813.142700,564.453186 1813.734619,563.432312 1813.727905,561.263306 
	C1813.665894,541.268677 1813.643799,521.273499 1813.756958,501.279297 
	C1813.773193,498.421722 1812.162476,498.190796 1810.094238,497.699677 
	C1799.749634,495.243378 1789.479858,492.432953 1779.835938,487.900391 
	C1763.039429,480.006195 1749.754272,468.778809 1745.971436,449.443115 
	C1740.319336,420.552643 1752.172852,396.160675 1778.597778,381.940796 
	C1788.199341,376.774078 1798.399902,373.276459 1809.233765,372.008362 
	C1812.889038,371.580536 1813.901001,370.226868 1813.776733,366.653198 
	C1813.499023,358.664856 1813.775635,350.658691 1813.631958,342.663300 
	C1813.584961,340.046265 1813.985596,338.766052 1817.075928,338.917694 
	C1822.561523,339.186859 1828.074585,339.136444 1833.565918,338.937286 
	C1836.306885,338.837891 1836.884766,339.843658 1836.837158,342.387207 
	C1836.684204,350.548889 1837.012329,358.724731 1836.679077,366.875610 
	C1836.524048,370.667389 1837.979614,371.532318 1841.370361,372.017334 
	C1860.252563,374.718384 1877.141357,381.938202 1891.297852,394.970032 
	C1897.379395,400.568390 1901.887451,407.275543 1905.233765,414.842896 
	C1906.327515,417.316254 1905.916992,418.220062 1903.366699,419.088806 
	C1895.044678,421.923645 1886.763550,424.897003 1878.577026,428.098999 
	C1876.052368,429.086517 1875.344849,428.289795 1874.181396,426.210907 
	C1866.473389,412.438019 1853.139893,407.722656 1838.840210,404.647858 
	C1836.683105,404.184021 1836.790894,405.596588 1836.790649,406.966431 
	C1836.788208,427.127777 1836.839233,447.289429 1836.735229,467.450226 
	C1836.717651,470.842529 1839.249512,470.456726 1841.103149,470.940521 
	C1853.693848,474.226776 1865.971191,478.363708 1877.019531,485.364258 
	C1891.416138,494.486298 1902.632812,506.101227 1905.057373,523.971924 
	C1908.486694,549.247375 1898.430176,568.313049 1877.926880,582.505066 
	C1876.152832,583.733154 1874.259033,584.788269 1872.085938,586.075195 
z"/>
<path fill="#FDFDFD" opacity="1.000000" stroke="none" 
	d="
M1411.914062,435.987732 
	C1412.265015,407.821289 1427.774414,390.680359 1451.288574,379.295319 
	C1459.394775,375.370422 1468.044434,372.882141 1477.038696,371.922211 
	C1480.094116,371.596161 1481.151611,370.463745 1481.051392,367.250732 
	C1480.791748,358.929291 1481.065674,350.592438 1480.909424,342.265808 
	C1480.860718,339.667389 1481.573853,338.836670 1484.223145,338.935211 
	C1489.713135,339.139465 1495.220093,339.124603 1500.711548,338.941498 
	C1503.275269,338.856018 1504.127197,339.535339 1504.066406,342.219330 
	C1503.885010,350.211639 1504.374146,358.234833 1503.858521,366.197845 
	C1503.558716,370.830414 1505.508789,371.485199 1509.337891,372.081146 
	C1528.144775,375.008118 1545.047241,382.199219 1559.066772,395.417358 
	C1564.959351,400.973145 1569.341187,407.570282 1572.608521,414.964142 
	C1573.519775,417.026154 1573.427856,418.167206 1571.024780,418.994568 
	C1562.399536,421.963989 1553.812012,425.048004 1545.266846,428.240112 
	C1543.471802,428.910645 1542.798340,428.691986 1541.873047,426.935394 
	C1534.385864,412.720306 1520.922363,407.931580 1506.473267,404.694641 
	C1504.299194,404.207581 1503.972656,404.986359 1503.976562,406.871918 
	C1504.017456,427.029449 1504.072754,447.187592 1503.930298,467.344208 
	C1503.906372,470.733154 1506.259888,470.448700 1508.149658,470.926544 
	C1519.455566,473.785339 1530.498291,477.414490 1540.648926,483.211670 
	C1554.554443,491.153168 1566.295166,501.226440 1570.963867,517.373657 
	C1578.081421,541.990356 1568.151245,567.148132 1545.484375,582.368469 
	C1533.820557,590.200562 1520.869141,594.651062 1507.076538,596.686646 
	C1504.477173,597.070251 1503.909668,597.930237 1503.948975,600.344116 
	C1504.084595,608.671509 1503.908081,617.004089 1504.057007,625.331055 
	C1504.104248,627.970703 1503.654785,629.195190 1500.612183,629.053162 
	C1495.126465,628.796997 1489.613525,628.812134 1484.125732,629.042969 
	C1481.300659,629.161743 1480.881836,628.027100 1480.919067,625.585999 
	C1481.045776,617.258301 1480.853638,608.925049 1481.034058,600.599365 
	C1481.093018,597.879517 1480.324219,597.101379 1477.575195,596.719360 
	C1459.977661,594.273743 1443.761841,588.330200 1429.900269,576.859985 
	C1422.485718,570.724487 1416.616333,563.401306 1412.691895,554.532043 
	C1411.571411,551.999573 1411.229736,550.570923 1414.500488,549.445496 
	C1422.650269,546.641418 1430.680420,543.483398 1438.715210,540.356079 
	C1440.758301,539.560791 1441.800049,539.779053 1442.968262,541.890503 
	C1450.692261,555.852051 1464.139771,560.749512 1478.578125,563.990234 
	C1480.750977,564.477905 1481.002441,563.348022 1480.998291,561.542236 
	C1480.951538,541.384766 1480.922607,521.226868 1481.018066,501.069702 
	C1481.030029,498.524170 1479.763306,498.258911 1477.772339,497.785004 
	C1467.274658,495.286224 1456.830200,492.480499 1447.041992,487.864960 
	C1430.956299,480.279938 1418.117432,469.575012 1413.640137,451.304474 
	C1412.445435,446.429504 1411.853149,441.490570 1411.914062,435.987732 
z"/>
<path fill="#FCFCFC" opacity="1.000000" stroke="none" 
	d="
M749.973511,376.042786 
	C769.962097,383.260559 785.889099,395.367096 798.839417,411.632080 
	C801.095093,414.465118 801.553101,415.801483 797.771057,417.645996 
	C790.317810,421.280945 783.025818,425.288330 775.900513,429.533325 
	C773.068726,431.220398 771.778198,430.522827 769.837402,428.336060 
	C754.368103,410.907043 735.105286,401.433960 711.608093,403.057495 
	C682.009338,405.102631 661.398132,421.155975 648.716492,447.254517 
	C628.430908,489.001831 645.876770,540.092224 686.239807,558.777100 
	C722.629456,575.622620 764.956055,558.440796 781.813782,519.846741 
	C785.473877,511.467285 785.663269,512.312256 777.066223,512.311829 
	C757.403931,512.310852 737.738770,512.132629 718.081360,512.444031 
	C713.461914,512.517212 712.566284,511.103180 712.788391,506.909393 
	C713.140320,500.262909 713.017944,493.579742 712.814331,486.920746 
	C712.725159,484.003845 713.738342,483.314056 716.513550,483.320770 
	C750.838928,483.403656 785.164551,483.391907 819.489990,483.332214 
	C821.857727,483.328094 823.062500,483.576935 823.056274,486.486023 
	C822.945557,538.057495 785.337830,589.146057 730.433533,596.790100 
	C681.357544,603.622620 637.245239,577.832153 617.485657,531.288818 
	C592.228394,471.795837 616.916504,402.377411 677.901062,377.589935 
	C701.482605,368.005127 725.492126,367.674347 749.973511,376.042786 
z"/>
<path fill="#FDFDFD" opacity="1.000000" stroke="none" 
	d="
M2329.997070,374.062500 
	C2335.583984,374.404114 2342.407959,371.861328 2345.269287,375.113617 
	C2347.772705,377.959198 2345.991699,384.630127 2345.994141,389.611206 
	C2346.011963,427.609314 2346.159180,465.608276 2345.947266,503.605225 
	C2345.808350,528.526733 2338.462891,551.006897 2322.144775,570.294495 
	C2287.752930,610.944031 2208.701904,610.734863 2181.065430,545.297485 
	C2175.429932,531.953979 2172.814453,517.978821 2172.821533,503.492249 
	C2172.842529,461.827667 2172.891357,420.162811 2172.727051,378.498871 
	C2172.711670,374.554260 2173.963135,373.976379 2177.505615,373.984467 
	C2228.169678,374.099792 2278.833740,374.062775 2329.997070,374.062500 
z"/>
<path fill="#FDFDFD" opacity="1.000000" stroke="none" 
	d="
M1055.415894,557.416504 
	C1011.172668,612.529602 930.544739,611.069885 888.539551,554.665100 
	C843.898499,494.720703 865.300537,408.186523 932.099487,378.540985 
	C979.084778,357.688782 1034.691284,375.790558 1062.984863,421.148438 
	C1089.421753,463.529572 1086.505737,517.625183 1055.415894,557.416504 
z"/>
<path fill="#FDFDFD" opacity="1.000000" stroke="none" 
	d="
M2921.751465,396.248962 
	C2971.302734,439.929138 2972.943359,516.838196 2931.053467,562.452820 
	C2885.627441,611.917847 2812.862305,609.513245 2770.489014,557.214417 
	C2724.414551,500.347137 2742.876709,412.962769 2807.822021,380.509888 
	C2844.753906,362.055298 2888.581543,368.038605 2921.751465,396.248962 
z"/>
<path fill="#FDFDFD" opacity="1.000000" stroke="none" 
	d="
M2399.883789,456.999939 
	C2399.884033,430.513275 2399.979248,404.525848 2399.781738,378.540710 
	C2399.751953,374.669006 2400.875488,373.948639 2404.493896,373.976440 
	C2426.980957,374.149078 2449.469971,374.015991 2471.958496,374.073212 
	C2536.321533,374.236938 2586.369385,428.690704 2581.233887,492.922638 
	C2576.703857,549.580811 2529.812988,593.372681 2472.983887,593.846069 
	C2450.330322,594.034790 2427.671875,593.710022 2405.021240,594.033569 
	C2400.249268,594.101685 2399.790283,592.457153 2399.802490,588.432800 
	C2399.934082,544.788818 2399.884033,501.144318 2399.883789,456.999939 
z"/>
<path fill="#FCFCFC" opacity="1.000000" stroke="none" 
	d="
M76.022049,593.893799 
	C64.141434,593.893799 64.142334,593.893799 64.142036,582.629089 
	C64.140236,514.974121 64.184090,447.319122 64.031952,379.664520 
	C64.021835,375.165833 65.059723,373.921753 69.683067,373.945312 
	C109.175186,374.146851 148.669159,374.139557 188.161377,373.948273 
	C192.472885,373.927429 193.393570,375.152100 193.218292,379.196228 
	C192.879501,387.013519 192.912628,394.863770 193.210556,402.684387 
	C193.349838,406.340515 192.103287,406.998505 188.721375,406.982666 
	C159.727036,406.846954 130.731522,406.964539 101.737175,406.829834 
	C98.076965,406.812836 96.206482,407.355896 96.781502,411.585144 
	C97.423340,416.305786 94.734261,422.685303 97.841660,425.407928 
	C100.510818,427.746643 106.708534,426.133240 111.346046,426.137939 
	C137.008224,426.164001 162.671204,426.246887 188.331894,426.049835 
	C192.334427,426.019104 193.357880,427.134338 193.211166,431.008423 
	C192.908691,438.995636 192.932465,447.008514 193.203735,454.997864 
	C193.319000,458.393066 192.199341,459.060791 189.034149,459.048126 
	C159.873016,458.931305 130.710587,459.071625 101.550323,458.873077 
	C97.488724,458.845367 96.445740,460.054871 96.774071,463.835907 
	C97.090034,467.474670 97.127388,471.190002 96.768333,474.820374 
	C96.400009,478.544525 97.903419,479.085632 101.234695,479.070496 
	C130.229065,478.938629 159.224564,479.053680 188.218918,478.919708 
	C191.856796,478.902924 193.455750,479.431763 193.239685,483.645752 
	C192.839142,491.457275 192.825500,499.319397 193.235886,507.129700 
	C193.463028,511.452484 191.720566,511.873169 188.116165,511.857452 
	C159.288376,511.731598 130.459305,511.868256 101.632057,511.691620 
	C97.718475,511.667664 96.711884,512.658875 96.742851,516.576782 
	C96.935165,540.904419 96.766342,565.234741 96.925552,589.562805 
	C96.948547,593.076599 96.039490,594.174133 92.509331,593.972351 
	C87.194527,593.668518 81.849495,593.893616 76.022049,593.893799 
z"/>
<path fill="#FCFCFC" opacity="1.000000" stroke="none" 
	d="
M2002.000000,374.060272 
	C2040.825562,374.060272 2079.151367,374.117157 2117.476318,373.972168 
	C2121.297119,373.957703 2122.593018,374.800323 2122.419922,378.803680 
	C2122.082031,386.620972 2122.138428,394.468536 2122.388672,402.292145 
	C2122.502930,405.867767 2121.750244,407.066498 2117.812500,407.018158 
	C2097.819824,406.772614 2077.820557,407.028473 2057.827393,406.800537 
	C2053.763428,406.754242 2052.589844,407.609741 2052.601318,411.877380 
	C2052.760498,470.698273 2052.649170,529.519958 2052.825684,588.340759 
	C2052.839600,593.016479 2051.559570,594.224731 2047.054443,593.997375 
	C2039.575073,593.619934 2032.052612,593.665222 2024.568481,593.994080 
	C2020.778198,594.160583 2019.922852,593.056580 2019.930908,589.332825 
	C2020.057983,530.511719 2019.941406,471.690002 2020.156738,412.869385 
	C2020.175659,407.749268 2018.864502,406.698151 2013.953247,406.776886 
	C1994.462280,407.089203 1974.962524,406.816681 1955.467896,406.983795 
	C1951.768921,407.015472 1950.187500,406.392944 1950.389404,402.187347 
	C1950.764282,394.373871 1950.673706,386.522583 1950.400024,378.700226 
	C1950.273071,375.068878 1951.121582,373.890442 1955.011353,373.954529 
	C1970.504028,374.209869 1986.003174,374.060059 2002.000000,374.060272 
z"/>
<path fill="#FDFDFD" opacity="1.000000" stroke="none" 
	d="
M2619.240723,406.902008 
	C2615.341309,407.466370 2614.173828,406.169250 2614.289062,402.589508 
	C2614.557129,394.269440 2614.490723,385.932709 2614.319824,377.607666 
	C2614.260498,374.715515 2615.231689,373.995728 2618.022705,374.004822 
	C2646.672852,374.098419 2675.323486,374.112488 2703.973389,373.989990 
	C2707.044189,373.976868 2707.477539,375.163361 2707.439941,377.759430 
	C2707.315918,386.252808 2707.221436,394.753876 2707.466553,403.241852 
	C2707.562988,406.587341 2706.238037,407.032593 2703.385742,406.962585 
	C2696.061035,406.782837 2688.725830,407.014099 2681.401123,406.837311 
	C2678.401367,406.764862 2677.063965,407.201324 2677.073975,410.795410 
	C2677.209229,459.600647 2677.194580,508.406433 2677.097656,557.211853 
	C2677.091797,560.246155 2677.784424,561.241272 2680.932617,561.143188 
	C2688.421143,560.909851 2695.924561,561.189514 2703.416016,561.005005 
	C2706.271240,560.934692 2707.581299,561.354980 2707.481201,564.703735 
	C2707.227539,573.191345 2707.313965,581.692810 2707.440918,590.186035 
	C2707.480225,592.820740 2706.985352,593.973999 2703.940918,593.961609 
	C2675.291016,593.845154 2646.640137,593.854309 2617.990234,593.952698 
	C2615.149902,593.962463 2614.274658,593.148499 2614.327148,590.313416 
	C2614.487061,581.654663 2614.477051,572.989441 2614.330566,564.330200 
	C2614.285156,561.650208 2615.211670,560.960999 2617.775879,561.011780 
	C2625.435303,561.163574 2633.102051,560.955505 2640.760742,561.124695 
	C2643.597656,561.187378 2644.781738,560.731995 2644.773438,557.418640 
	C2644.653076,508.446747 2644.650635,459.474365 2644.769531,410.502502 
	C2644.777588,407.122894 2643.477783,406.776367 2640.699707,406.841553 
	C2633.707275,407.005585 2626.708984,406.899811 2619.240723,406.902008 
z"/>
<path fill="#FCFCFC" opacity="1.000000" stroke="none" 
	d="
M310.893646,458.000061 
	C310.893280,491.146881 310.948395,523.793945 310.812592,556.440247 
	C310.797913,559.966980 311.338470,561.374390 315.309631,561.174438 
	C322.786102,560.797974 330.298126,561.190186 337.788849,561.002441 
	C340.493042,560.934692 341.133820,561.822083 341.092010,564.382874 
	C340.947876,573.208557 340.959076,582.038940 341.080109,590.865234 
	C341.113220,593.281189 340.328369,593.948730 337.952789,593.942749 
	C308.970581,593.869812 279.988037,593.865662 251.005875,593.944214 
	C248.562073,593.950867 247.914383,593.184509 247.946350,590.829834 
	C248.066177,582.003540 248.081223,573.173218 247.941467,564.347473 
	C247.900955,561.789185 248.559540,560.934143 251.244141,560.999695 
	C258.901550,561.186584 266.568726,560.955261 274.227386,561.114868 
	C277.022949,561.173096 278.255829,560.815857 278.246887,557.447144 
	C278.117004,508.477234 278.115448,459.506805 278.237640,410.536865 
	C278.245911,407.214172 277.084686,406.768433 274.248138,406.832306 
	C266.590118,407.004852 258.923035,406.782562 251.265594,406.967346 
	C248.583908,407.032043 247.894928,406.178986 247.937332,403.594849 
	C248.082184,394.769257 248.067230,385.938812 247.945541,377.112518 
	C247.913025,374.754272 248.558472,374.002869 250.998840,374.009705 
	C279.980988,374.090820 308.963531,374.087402 337.945740,374.016449 
	C340.281921,374.010712 341.122101,374.585052 341.085083,377.044281 
	C340.952179,385.870148 340.908539,394.702057 341.103668,403.525635 
	C341.171692,406.601166 339.881958,406.998688 337.286163,406.948212 
	C329.960083,406.805725 322.615662,407.170929 315.306000,406.797150 
	C311.343872,406.594513 310.765839,408.004669 310.810150,411.529358 
	C311.002777,426.850861 310.893311,442.176117 310.893646,458.000061 
z"/>
<path fill="#FBFBFB" opacity="1.000000" stroke="none" 
	d="
M1351.893066,405.981506 
	C1351.076660,406.302246 1350.643066,406.568909 1350.172607,406.724030 
	C1339.071533,410.384491 1341.406128,410.767120 1340.987915,400.068695 
	C1340.895264,397.700439 1341.901367,396.883331 1343.814453,396.242218 
	C1354.154663,392.776886 1358.272461,384.819672 1359.570435,374.658356 
	C1359.922363,371.904022 1358.845215,371.558990 1356.634277,371.602753 
	C1352.469360,371.685211 1348.298218,371.524139 1344.136108,371.661011 
	C1341.762939,371.739044 1340.965820,370.947449 1341.002563,368.513824 
	C1341.135376,359.682648 1341.142578,350.846954 1341.002197,342.016052 
	C1340.963013,339.560486 1341.759155,338.941376 1344.114502,338.972260 
	C1353.279419,339.092468 1362.447266,339.047974 1371.613403,338.989288 
	C1373.359741,338.978119 1374.474243,339.226013 1374.407349,341.352570 
	C1374.020996,353.659546 1375.232544,365.998322 1373.416504,378.281647 
	C1371.468994,391.454681 1364.128418,400.371368 1351.893066,405.981506 
z"/>
<path fill="#010101" opacity="1.000000" stroke="none" 
	d="
M1265.110962,435.000061 
	C1265.110962,467.909454 1265.110962,500.318878 1265.110962,532.728271 
	C1264.801270,532.820801 1264.491577,532.913269 1264.181885,533.005798 
	C1238.062500,491.267670 1211.943115,449.529572 1185.865723,407.858490 
	C1186.845337,406.318176 1188.125854,406.925812 1189.159546,406.924286 
	C1212.991577,406.888489 1236.824585,407.004395 1260.654663,406.794464 
	C1264.543457,406.760193 1265.331543,407.894897 1265.197632,411.504181 
	C1264.913818,419.160004 1265.110962,426.833679 1265.110962,435.000061 
z"/>
<path fill="#060606" opacity="1.000000" stroke="none" 
	d="
M468.215210,464.910675 
	C461.556335,463.185822 455.174927,462.080078 449.275482,459.258392 
	C431.568024,450.788940 428.507690,429.684967 443.179901,416.612946 
	C450.028168,410.511597 458.128723,406.935852 467.013336,404.893585 
	C469.710846,404.273499 470.802765,404.497620 470.776794,407.738922 
	C470.632965,425.684875 470.733643,443.632721 470.681274,461.579681 
	C470.677246,462.957245 471.650177,465.257721 468.215210,464.910675 
z"/>
<path fill="#020202" opacity="1.000000" stroke="none" 
	d="
M493.776031,513.054932 
	C493.776306,502.752319 493.755890,502.817322 503.503235,505.880554 
	C509.734222,507.838715 515.559387,510.531891 520.723511,514.555603 
	C531.777832,523.168701 533.501343,537.657227 524.546509,548.444153 
	C517.194641,557.300110 507.053253,561.289612 496.207916,563.831604 
	C492.838165,564.621399 493.814392,561.978333 493.809052,560.445618 
	C493.754639,544.811951 493.775909,529.178040 493.776031,513.054932 
z"/>
<path fill="#060606" opacity="1.000000" stroke="none" 
	d="
M1778.226074,444.431213 
	C1775.411255,428.897827 1779.505371,419.861206 1792.666382,411.822815 
	C1798.236816,408.420532 1804.231201,406.189575 1810.600830,404.765869 
	C1813.201172,404.184692 1813.755371,404.902100 1813.746582,407.349213 
	C1813.680298,425.635406 1813.698486,443.922028 1813.734131,462.208405 
	C1813.737915,464.166718 1813.499023,465.543640 1811.010132,464.891357 
	C1803.974854,463.047699 1796.744995,461.859589 1790.268188,458.227386 
	C1784.723267,455.117828 1780.313477,451.075348 1778.226074,444.431213 
z"/>
<path fill="#020202" opacity="1.000000" stroke="none" 
	d="
M1848.447021,506.452789 
	C1854.334351,508.540833 1859.502441,511.149078 1864.093994,514.816467 
	C1874.672974,523.265686 1876.385254,537.477539 1867.874756,548.035583 
	C1860.512085,557.169678 1850.226562,561.245544 1839.187500,563.842651 
	C1836.326660,564.515686 1836.785767,562.497986 1836.783691,560.899841 
	C1836.769653,550.075500 1836.773560,539.251099 1836.772583,528.426758 
	C1836.771851,520.120239 1836.772461,511.813721 1836.772461,503.007904 
	C1840.862793,504.190369 1844.478394,505.235565 1848.447021,506.452789 
z"/>
<path fill="#030303" opacity="1.000000" stroke="none" 
	d="
M1480.970459,458.884125 
	C1480.963745,465.337097 1480.959229,465.357269 1474.915894,464.018494 
	C1468.596436,462.618622 1462.317993,461.076721 1456.669434,457.730347 
	C1442.603882,449.397430 1439.940796,430.725250 1451.286865,418.798309 
	C1459.246460,410.431152 1469.379639,406.257904 1480.973145,404.224426 
	C1480.973145,422.504791 1480.973145,440.452972 1480.970459,458.884125 
z"/>
<path fill="#020202" opacity="1.000000" stroke="none" 
	d="
M1515.565918,506.362671 
	C1521.574829,508.568390 1526.925293,511.178009 1531.610596,515.002258 
	C1541.622314,523.174316 1543.568237,536.666870 1535.894897,547.056885 
	C1528.554688,556.996155 1517.773315,561.211426 1506.212769,563.896545 
	C1503.779297,564.461792 1503.991333,562.861267 1503.992188,561.322449 
	C1504.003052,542.020203 1503.999268,522.718018 1503.999268,502.982300 
	C1507.964233,504.116486 1511.588989,505.153290 1515.565918,506.362671 
z"/>
<path fill="#010101" opacity="1.000000" stroke="none" 
	d="
M2205.234619,417.041321 
	C2205.230713,406.900299 2205.230713,406.900238 2214.731689,406.900238 
	C2246.228760,406.900238 2277.725830,406.912018 2309.222900,406.877533 
	C2311.695068,406.874817 2313.501953,406.654205 2313.472656,410.327454 
	C2313.208496,443.487274 2313.715576,476.663635 2312.827881,509.803894 
	C2312.349609,527.670532 2305.601318,543.619446 2291.004150,555.096985 
	C2263.426514,576.780762 2222.535889,563.993164 2210.072021,529.916870 
	C2206.659912,520.587708 2205.247803,510.915924 2205.239014,501.026031 
	C2205.214600,473.195282 2205.233154,445.364532 2205.234619,417.041321 
z"/>
<path fill="#010101" opacity="1.000000" stroke="none" 
	d="
M983.194824,564.398682 
	C954.628723,567.834534 932.152527,557.469238 915.040222,535.530212 
	C882.232117,493.468597 897.395935,430.101562 945.107239,408.645813 
	C972.773682,396.204254 1004.512146,403.378815 1026.508301,427.046600 
	C1065.191406,468.669617 1050.371948,539.127441 998.482605,560.320801 
	C993.695496,562.276062 988.776184,563.706909 983.194824,564.398682 
z"/>
<path fill="#010101" opacity="1.000000" stroke="none" 
	d="
M2793.431885,533.528931 
	C2769.892578,499.419098 2773.028076,454.717499 2800.743652,425.773682 
	C2829.737793,395.494751 2874.382568,394.953217 2904.074707,424.520264 
	C2937.987061,458.289673 2935.850342,516.803223 2899.587646,547.393127 
	C2867.465576,574.490112 2822.750244,570.162476 2796.368652,537.396423 
	C2795.429443,536.230103 2794.560547,535.007141 2793.431885,533.528931 
z"/>
<path fill="#010101" opacity="1.000000" stroke="none" 
	d="
M2539.091064,522.043701 
	C2522.952393,547.983704 2500.135010,561.336060 2469.678467,561.085999 
	C2458.513428,560.994324 2447.345459,560.971130 2436.182129,561.137695 
	C2433.184570,561.182373 2432.217041,560.461487 2432.223633,557.291687 
	C2432.326660,508.462524 2432.294189,459.633057 2432.297363,410.803650 
	C2432.297607,408.865814 2431.743652,406.744019 2435.061279,406.860992 
	C2451.862061,407.453308 2468.741699,405.569305 2485.475586,408.004059 
	C2519.095947,412.895782 2547.343506,444.494141 2548.969238,478.545563 
	C2549.700684,493.866180 2546.935059,508.324066 2539.091064,522.043701 
z"/>
<path fill="#FCFCFC" opacity="1.000000" stroke="none" 
	d="
M2245.007812,546.991821 
	C2238.438477,539.649658 2237.035645,531.638428 2241.245361,523.188477 
	C2245.066162,515.519714 2251.724365,511.621918 2260.341309,512.068481 
	C2268.920166,512.513123 2275.037354,516.976196 2278.287842,524.975952 
	C2281.815430,533.656860 2278.906006,543.437744 2271.354004,548.999817 
	C2263.406006,554.853638 2253.916748,554.217041 2245.007812,546.991821 
z"/>
<path fill="#FCFCFC" opacity="1.000000" stroke="none" 
	d="
M977.408081,456.195679 
	C991.447632,459.824371 999.815186,469.040436 1000.882446,481.649628 
	C1001.881348,493.450165 994.966553,505.044861 984.136841,509.728546 
	C973.630432,514.272400 961.433655,511.961945 953.284912,503.884216 
	C945.285828,495.954895 942.822021,484.036621 947.009827,473.531250 
	C951.251892,462.890106 961.476135,455.970032 972.996155,455.965057 
	C974.324280,455.964478 975.652405,456.069580 977.408081,456.195679 
z"/>
<path fill="#FCFCFC" opacity="1.000000" stroke="none" 
	d="
M2874.228516,502.190002 
	C2865.166504,511.664368 2854.653076,514.627930 2842.710205,509.940369 
	C2831.618164,505.586914 2825.567139,496.934906 2825.104736,485.058075 
	C2824.633301,472.941711 2830.292725,463.942078 2841.144531,458.596558 
	C2852.570801,452.968140 2866.328857,456.229462 2874.499268,466.086945 
	C2883.081055,476.440704 2883.069824,489.949829 2874.228516,502.190002 
z"/>
</svg>